<svg viewBox="0 0 750 750" xmlns="http://www.w3.org/2000/svg"><path fill="#516e8b" d="M267.538 159.792a1181.019 1181.019 0 0 0-46.55 145.5c-3.5 14.05-6.75 28.15-9.75 42.3-1.65 7.85 10.4 11.2 12.05 3.325 10.55-49.85 24.275-99.025 41.15-147.1 4.8-13.65 9.85-27.225 15.15-40.7 1.225-3.15-1.35-6.85-4.375-7.7-3.525-.975-6.425 1.225-7.675 4.375z"/><path fill="#516e8b" d="M269.388 159.067c19.15 20.625 39.075 40.5 59.8 59.55 5.9 5.45 14.775-3.375 8.85-8.85a1074.785 1074.785 0 0 1-59.8-59.55c-5.475-5.9-14.3 2.95-8.85 8.85z"/><path fill="#516e8b" d="M330.388 216.367c39.35-16.525 83.45-20 124.825-9.35 7.8 2 11.125-10.05 3.325-12.05-43.375-11.175-90.15-8-131.475 9.35-3.1 1.3-5.35 4.125-4.375 7.7.825 2.925 4.575 5.65 7.7 4.35z"/><path fill="#516e8b" d="M456.988 208.667c13.95 1.75 28 7.05 40.15 14.875 2.85 1.825 6.9.575 8.55-2.25 1.775-3.025.6-6.725-2.25-8.55-14.05-9.05-29.9-14.5-46.475-16.575-3.35-.425-6.25 3.175-6.25 6.25.025 3.725 2.9 5.85 6.275 6.25z"/><path fill="#516e8b" d="M508.738 223.117c23.9-19.25 48.825-37.225 74.55-53.925 6.725-4.375.475-15.2-6.3-10.8-26.625 17.3-52.35 35.975-77.075 55.875-2.625 2.125-2.2 6.625 0 8.85 2.6 2.6 6.2 2.125 8.825 0z"/><path fill="#516e8b" d="M577.638 168.417c6.6 53.55-3.3 107.05-5.05 160.575-.475 15.075-.275 30.15 1.05 45.175.3 3.35 2.65 6.25 6.25 6.25 3.15 0 6.55-2.875 6.25-6.25-4.825-53.7 5.475-107.075 6.225-160.7.2-15.05-.4-30.1-2.25-45.05-.425-3.35-2.575-6.25-6.25-6.25-3.025 0-6.625 2.875-6.225 6.25zM346.788 301.817c.5-.45 1.025-.9 1.525-1.375.6-.575 1.05-1.225 1.3-2 .4-.75.575-1.55.55-2.4.025-.85-.15-1.675-.55-2.4a4.422 4.422 0 0 0-1.3-2l-1.275-.975a6.083 6.083 0 0 0-3.15-.85l-1.65.225a6.25 6.25 0 0 0-2.75 1.6c-.5.45-1.025.9-1.525 1.375-.6.575-1.05 1.225-1.3 2a4.71 4.71 0 0 0-.55 2.4c-.025.85.15 1.675.55 2.4.25.775.675 1.45 1.3 2l1.275.975c.975.575 2.025.85 3.15.85l1.65-.225a6.25 6.25 0 0 0 2.75-1.6zM477.488 307.442l.95-.95c.6-.575 1.05-1.225 1.3-2 .4-.75.575-1.55.55-2.4.025-.85-.15-1.675-.55-2.4a4.422 4.422 0 0 0-1.3-2l-1.275-.975a6.083 6.083 0 0 0-3.15-.85l-1.65.225a6.25 6.25 0 0 0-2.75 1.6l-.95.95c-.6.575-1.05 1.225-1.3 2a4.71 4.71 0 0 0-.55 2.4c-.025.85.15 1.675.55 2.4.25.775.675 1.45 1.3 2l1.275.975c.975.575 2.025.85 3.15.85l1.65-.225a6.022 6.022 0 0 0 2.75-1.6zM524.313 383.342c-30.975-3.25-54.075 21.2-72.3 42.65-2.175 2.575-2.525 6.325 0 8.85 2.25 2.25 6.65 2.575 8.85 0 16.1-18.95 35.9-41.875 63.475-39 3.35.35 6.25-3.125 6.25-6.25-.025-3.675-2.9-5.9-6.275-6.25z"/><path fill="#516e8b" d="M452.338 424.667c-7.675 13.3-13.6 29.4-9.325 44.825 3.7 13.35 14.35 23.975 28.325 25.525 3.35.375 6.25-3.15 6.25-6.25 0-3.7-2.875-5.875-6.25-6.25-8.875-1-14.925-9.975-16.675-18.025-2.55-11.575 2.8-23.7 8.475-33.525 4-6.975-6.775-13.275-10.8-6.3z"/><path fill="#516e8b" d="M458.388 490.167c9.625 9.55 22.7 4.575 33.375.025a314.423 314.423 0 0 0 32.625-16.225c6.975-4 .7-14.8-6.3-10.8-8.975 5.125-18.2 9.85-27.65 14.05-4.425 1.975-8.95 4.1-13.65 5.4-3.225.875-7 1.25-9.575-1.275-5.7-5.7-14.55 3.125-8.825 8.825z"/><path fill="#516e8b" d="M522.863 475.942c12.125-9.775 26.55-16.625 41.825-20.275 3.275-.775 5.225-4.525 4.375-7.7-.925-3.35-4.4-5.15-7.7-4.375-17.4 4.15-33.45 12.3-47.325 23.475-2.625 2.125-2.2 6.625 0 8.85 2.575 2.625 6.175 2.15 8.825.025z"/><path fill="#516e8b" d="M558.013 457.142c.325.025.65.05.975.1l-1.65-.225c1.3.175 2.525.525 3.725 1.025-.5-.2-1-.425-1.5-.625.7.3 1.375.65 2.025 1.05l.825.525.525.375c-.25-.2-.5-.375-.75-.575 1.2.8 2.275 2.025 3.175 3.125.95 1.125-.775-1.125-.05-.075.2.3.425.6.625.9.45.65.85 1.35 1.25 2.025.8 1.45 1.5 2.95 2.15 4.475-.2-.5-.425-1-.625-1.5.8 1.925 1.525 3.9 2.25 5.85.575 1.55 1.4 2.875 2.875 3.725 1.35.775 3.325 1.125 4.825.625 3-.975 5.575-4.4 4.375-7.7-2.225-6.1-4.575-12.025-8.7-17.075-4.05-4.95-9.95-8.15-16.325-8.55-3.275-.2-6.4 3.025-6.25 6.25.175 3.6 2.75 6.05 6.25 6.275zM370.213 383.967c-10.725 9.325-19.375 21.15-24.975 34.225-1.275 3-1 6.85 2.25 8.55 2.675 1.425 7.175.975 8.55-2.25 2.675-6.225 6-12.15 9.975-17.625.225-.3.425-.6.65-.875.075-.125.975-1.3.5-.675-.425.55.275-.35.35-.45.275-.35.575-.725.85-1.075a93.143 93.143 0 0 1 3.225-3.725c2.35-2.575 4.85-4.975 7.45-7.25 2.475-2.15 2.375-6.675 0-8.85-2.625-2.4-6.175-2.3-8.825 0z"/><path fill="#516e8b" d="M354.938 395.567c-8.525 13.225-14.825 27.925-18.475 43.2-.75 3.175 1 6.925 4.375 7.7 3.2.725 6.875-.975 7.7-4.375 3.5-14.55 9.1-27.65 17.225-40.225 1.825-2.825.575-6.9-2.25-8.55-3.05-1.775-6.75-.6-8.575 2.25z"/><path fill="#516e8b" d="M359.863 408.692l12.325-14.2c1.1-1.275 1.825-2.7 1.825-4.425 0-1.525-.675-3.375-1.825-4.425-1.2-1.1-2.75-1.9-4.425-1.825-1.6.075-3.35.575-4.425 1.825l-12.325 14.2c-1.1 1.275-1.825 2.7-1.825 4.425 0 1.525.675 3.375 1.825 4.425 1.2 1.1 2.75 1.9 4.425 1.825 1.6-.075 3.35-.575 4.425-1.825zM398.013 439.192c1.225 4.75 2.475 9.5 3.7 14.225.4 1.5 1.525 2.95 2.875 3.725 1.35.775 3.325 1.125 4.825.625 3.25-1.05 5.25-4.3 4.375-7.7-1.225-4.75-2.475-9.5-3.7-14.225-.4-1.5-1.525-2.95-2.875-3.725-1.35-.775-3.325-1.125-4.825-.625-3.25 1.05-5.25 4.3-4.375 7.7z"/><path fill="#516e8b" d="M388.113 391.742c-.05.025-.125.05-.175.075h-3.325c.725.15 2.775 4.375 3.275 5.225 1.475 2.45 2.875 4.95 4.2 7.475a128.96 128.96 0 0 1 6.475 14.6c3.825 10.325 6.55 21.15 7.9 32.075 2.725 22.225.5 44.9-6.75 66.075-4.05 11.825-9.8 22.975-16.925 33.25-1.925 2.775-.5 6.95 2.25 8.55 3.1 1.825 6.625.525 8.55-2.25 28.9-41.575 34.425-98.225 15.5-145.025-2.65-6.525-5.65-12.925-9.175-19.025-3.3-5.725-9.8-17.825-18.1-11.825-2.725 1.975-4.05 5.45-2.25 8.55 1.575 2.7 5.775 4.225 8.55 2.25z"/><path fill="#516e8b" d="M384.638 552.342c5.3 7.25 10.575 14.55 14.925 22.45 1.975 3.6 3.775 7.3 5.15 11.175a65.58 65.58 0 0 1 1.9 6.45c.05.25.775 3.3.675 3.325-.125.025.575-1.55.675-1.625.925-.525 1.85-1.075 2.75-1.6.25-.05.475-.075.725-.125-3.375-.275-6.25 3.075-6.25 6.25 0 3.6 2.875 5.975 6.25 6.25 3.675.3 6.85-2.525 7.85-5.925.825-2.875.25-5.75-.35-8.6-1.2-5.625-3.25-11-5.675-16.2-4.7-10.075-11.275-19.15-17.8-28.1-1.975-2.725-5.425-4.075-8.55-2.25-2.725 1.55-4.275 5.775-2.275 8.525zM350.563 396.742c-24.225 38.075-29.7 87.15-15.875 129.95 3.95 12.2 9.4 23.95 16.375 34.725 4.35 6.725 15.175.475 10.8-6.3-22.775-35.3-27.975-80.275-15.4-120.225 3.55-11.25 8.575-21.9 14.9-31.85 4.325-6.8-6.5-13.075-10.8-6.3z"/><path fill="#516e8b" d="M348.563 558.392c-9.9 12.6-17.675 26.35-23.3 41.375-1.55 4.15 2.375 7.575 6.025 7.9 16.325 1.55 32.675 2.85 48.925 5.025 7.975 1.05 15.875 3.025 23.875 3.9 7.925.85 16.1-5.1 13.8-13.725-2.075-7.775-14.125-4.475-12.05 3.325-.1-.35.625-2.35.8-1.975-.025-.05-3.675-.4-4.05-.475-3.2-.625-6.4-1.2-9.625-1.725-6.975-1.125-14-2.05-21.025-2.85-13.525-1.55-27.125-2.725-40.675-4 2 2.625 4.025 5.275 6.025 7.9 4.8-12.825 11.625-25.075 20.075-35.85 2.075-2.65 2.6-6.25 0-8.85-2.125-2.125-6.7-2.65-8.8.025z"/><path fill="#516e8b" d="M410.163 601.442v-.95c.025-.85-.15-1.675-.55-2.4a4.422 4.422 0 0 0-1.3-2c-.575-.6-1.225-1.05-2-1.3a4.71 4.71 0 0 0-2.4-.55l-1.65.225a6.25 6.25 0 0 0-2.75 1.6l-.975 1.275a6.083 6.083 0 0 0-.85 3.15v.95c-.025.85.15 1.675.55 2.4.25.775.675 1.45 1.3 2 .575.6 1.225 1.05 2 1.3.75.4 1.55.575 2.4.55l1.65-.225a6.25 6.25 0 0 0 2.75-1.6l.975-1.275c.575-.95.85-2.025.85-3.15zM345.213 427.192c-4.5 15.7-7.525 31.875-8.8 48.15-1.2 15.375.025 31.05 7.075 44.975 3.625 7.175 14.425.85 10.8-6.3-6.2-12.225-6.425-26.375-5.3-39.75 1.25-14.8 4.175-29.45 8.25-43.725 2.25-7.775-9.8-11.075-12.025-3.35z"/><path fill="#516e8b" d="M337.113 470.717c-1.475 26.475 4.7 53.075 17.475 76.3 3.875 7.05 14.675.75 10.8-6.3-11.75-21.375-17.125-45.65-15.775-69.975.45-8.05-12.05-8.025-12.5-.025z"/><path fill="#516e8b" d="M346.363 518.892c3.3 11.975 6.575 23.925 9.875 35.9.875 3.15 4.475 5.4 7.7 4.375 3.225-1.05 5.3-4.3 4.375-7.7-3.3-11.975-6.575-23.925-9.875-35.9-.875-3.15-4.475-5.4-7.7-4.375-3.225 1.05-5.3 4.325-4.375 7.7z"/><path fill="#516e8b" d="M355.288 550.317c-.1 1.3-.25 2.625-.4 3.925.175-1.475-.15.875-.175 1.125-.1.55-.175 1.1-.275 1.675a89.792 89.792 0 0 1-1.775 7.675 79.262 79.262 0 0 1-2.475 7.475c-.2.525-.4 1.05-.625 1.575-.275.675-.275.7-.025.075-.15.35-.3.7-.45 1.025-.525 1.2-1.1 2.375-1.675 3.55-1.45 2.925-.875 6.9 2.25 8.55 2.825 1.5 7 .875 8.55-2.25 5.375-10.825 8.6-22.35 9.6-34.4.275-3.275-3.075-6.4-6.25-6.25-3.65.15-5.975 2.75-6.275 6.25z"/><path fill="#516e8b" d="M353.713 560.267a601.96 601.96 0 0 0-13.725 28.65c-1.325 2.975-.95 6.85 2.25 8.55 2.725 1.45 7.125.95 8.55-2.25a601.96 601.96 0 0 1 13.725-28.65c1.475-2.9.85-6.925-2.25-8.55-2.85-1.5-6.95-.875-8.55 2.25z"/><path fill="#516e8b" d="M346.163 600.442c7.55-.925 15.075-1.875 22.625-2.8 1.725-.225 3.15-.55 4.425-1.825 1.075-1.075 1.9-2.875 1.825-4.425-.075-1.625-.6-3.3-1.825-4.425-1.125-1.05-2.825-2.025-4.425-1.825-7.55.925-15.075 1.875-22.625 2.8-1.725.225-3.15.55-4.425 1.825-1.075 1.075-1.9 2.875-1.825 4.425.075 1.625.6 3.3 1.825 4.425 1.15 1.025 2.825 2.025 4.425 1.825z"/><path fill="#516e8b" d="M358.463 597.392c5.525 1.325 11.025 2.65 16.55 3.975 3.25.775 6.75 1.9 10.05.8 4.425-1.5 7.35-6.025 6.075-10.675-.875-3.15-4.475-5.4-7.7-4.375-3.225 1.05-5.3 4.3-4.375 7.7a4.076 4.076 0 0 1 .625-3.35c.25-.4.575-.725 1-.95 1.025-.375 1.175-.45.45-.25.875-.1 1.05-.15.575-.15-.475-.025-.3 0 .55.1-.275.1-1-.2-1.325-.275-2.15-.5-4.325-1.05-6.475-1.55-4.225-1.025-8.475-2.05-12.7-3.05-3.175-.775-6.925 1-7.7 4.375-.675 3.2 1 6.85 4.4 7.675z"/><path fill="#516e8b" d="M376.238 569.392c-2.325-1.875-3.65-3.975-3.675-7-3.875 1.05-7.775 2.1-11.65 3.15 4.25 9.475 8.5 18.975 12.775 28.45 2.925 6.5 13.45 1.875 11.425-4.825-3.55-11.7-5.925-23.675-6.975-35.85-3.875 1.05-7.775 2.1-11.65 3.15 6.075 9.375 10.45 19.45 13.1 30.325 4.025-1.1 8.025-2.225 12.05-3.325-3.15-12.7-5.6-25.575-7.175-38.55-4.1.55-8.175 1.1-12.275 1.65 1.775 5.7 2.375 11.325 1.875 17.275h12.5c.875-15.5 3.675-30.725 8.175-45.55-4.1-.55-8.175-1.1-12.275-1.65-1.45 12.075-3.75 24.025-6.7 35.825-1.975 7.825 9.625 10.975 12.05 3.325 6.55-20.725 10.325-42.25 11.375-63.95.175-3.375-3-6.25-6.25-6.25-3.7 0-5.85 2.875-6.25 6.25-2 16.9-4 33.825-5.975 50.725-.825 6.975 10.925 8.55 12.275 1.65 4.275-21.675 6.65-43.7 6.975-65.775.125-8.1-11.975-7.95-12.5 0-1.225 18.45-2.475 36.9-3.7 55.375-.475 6.925 11.25 8.675 12.275 1.65 1.925-13.35 3.875-26.7 5.8-40.025-4.1-.55-8.175-1.1-12.275-1.65l-6.975 72.325c4.1-.55 8.175-1.1 12.275-1.65-.375-2.125-.725-4.275-1.1-6.4-.525-3.025-4.05-4.9-6.85-4.475-3.225.475-5.15 2.95-5.425 6.15a51.56 51.56 0 0 0 3.2 22.675c1 2.6 3.075 4.6 6.025 4.6 2.5 0 5.625-1.925 6.025-4.6.675-4.65.675-8.9-.125-13.525-4.025 1.1-8.025 2.225-12.05 3.325 1.3 6.675 2.575 13.35 3.875 20 1.325 6.825 13.025 5.375 12.275-1.65l-.975-9h-12.5c.55 4.35 1.125 8.725 1.675 13.075.425 3.35 2.575 6.25 6.25 6.25 3.05 0 6.675-2.875 6.25-6.25-.575-4.725-1.15-9.45-1.725-14.15-.4-3.35-2.575-6.25-6.25-6.25-3.425 0-6.225 2.85-6.25 6.25-.05 4.8-.075 9.575-.125 14.375 3.125-1.8 6.275-3.6 9.4-5.4 1.3.975.275.8.4-.075.025-.175-.125-1.375-.125-1.625-.05-2 .125-4 .2-5.975.175-4.75.35-9.5.55-14.25l1.05-27.875c.7-18.8 1.425-37.6 2.125-56.4.25-6.875-11.3-8.725-12.275-1.65-.5 3.55-1 7.1-1.475 10.675 4.1.55 8.175 1.1 12.275 1.65-1.175-14.1-2.325-28.175-3.5-42.275-.65-7.925-12.35-8.15-12.5 0-.1 5.675-1 11.075-2.625 16.5h12.05c-1.075-4.575-2.15-9.125-3.225-13.7-1.45-6.175-10.375-5.725-12.05 0-3.925 13.375-7.85 26.725-11.775 40.1 4.1.55 8.175 1.1 12.275 1.65 0-14.75-1.625-29.475-4.8-43.875-1.3-5.85-10.925-6.075-12.05 0-4.875 26.4-9.15 53.925 1.875 79.4 2.475 5.725 12 2.775 11.65-3.15-1.475-24-5.275-47.85-11.425-71.125-1.9-7.175-11.65-5.075-12.275 1.65-2.25 24.3 2.2 48.675 12.225 70.875 2.6 5.725 11.875 2.775 11.65-3.15-1.05-26.25-5.275-52.325-12.65-77.55-1.65-5.625-10.75-6.275-12.05 0-6.225 30.075-.725 61.95 15.625 88 2.75 4.375 10.125 3.925 11.425-1.5 3.125-12.9 4.65-26.25 4.3-39.55-.25-9.475-1.775-25.625-14.9-25.025-3.575.15-5.975 2.75-6.25 6.25-1.7 20.775 1.375 41.9 8.95 61.325 1.025 2.6 3.075 4.6 6.025 4.6 2.675 0 5.375-1.925 6.025-4.6 2.85-11.8.725-24.525-6.4-34.45-2.5-3.5-6.5-4-9.825-1.275-7.125 5.875-10.225 15.625-9.725 24.625.6 10.875 5.775 20.575 11 29.875 3.25 5.75 11.15 2.7 11.65-3.15.925-11.125-1.425-22.1-6.375-32.075-1.225-2.45-4.525-3.575-7.05-2.875-2.825.775-4.325 3.25-4.6 6.025-1.15 12 .35 24.225 4.275 35.625.9 2.625 3.15 4.6 6.025 4.6 2.525 0 5.625-1.925 6.025-4.6 3.325-22 4.6-44.2 3.55-66.425-4.1.55-8.175 1.1-12.275 1.65 1.3 4.025 2 8.25 6.075 10.35 3.75 1.925 8.35 1.075 11.675-1.3 6.3-4.5 6.5-13.5 7.675-20.425 1.4-8.225 2.825-16.45 4.2-24.7 1.4-8.325 2.7-16.825 2.4-25.3-.525-14.075-5.65-28.275-17.375-36.775-7-5.075-15.475-5.775-20.95 1.775-4.275 5.875-7.1 13.375-9.225 20.275-2.125 6.925-3.95 14.9-1.625 22.025 2.075 6.375 7.325 11.1 13.925 12.325 14.525 2.7 25.7-8.675 28.55-22.1 1.6-7.525 1.35-15.325-.15-22.825-.375-1.925-.75-4.375-1.775-6.1-1.15-1.975-3.325-2.925-5.4-3.625-3.525-1.2-7.35-1.175-10.925-.35-14.475 3.3-21.25 20.525-19.65 34 1.025 8.575 5.95 16.3 14.425 19.125 8 2.675 16.4-1.275 20.5-8.425 4.425-7.725 3.3-16.65.825-24.8-2.25-7.4-4.85-15.425-12.025-19.425-2.175-1.225-5.875-1.2-7.575.975-9.425 11.95-14.55 26.6-13.8 41.925.125 2.75 1.85 5.3 4.6 6.025 15 4 31-9.775 28.775-25.3-1.45-10.075-14.725-7.25-20.25-2.675-6.05 5.025-7.825 12.75-4.8 19.875 2.025 4.775 8.4 3.3 10.8 0 4.925-6.825 6.3-15.525 4.35-23.625-1.425-5.95-10.65-5.975-12.05 0-1.975 8.325-1.625 17.025 1.375 25.075.875 2.35 2.575 4.175 5.2 4.475 2.225.275 5.225-.7 6.225-2.975 4.25-9.75 1.325-21-7.95-26.7-3.75-2.3-7.775.125-9.175 3.725-2.05 5.225-2.225 10.625-1.2 16.1 1.1 5.825 8.575 5.4 11.425 1.5 6.075-8.375 10.05-18.675 10.675-29.025.55-9.075-3.825-18.175-13.525-19.3v12.5c5.875-.05 10.275-6.675 6.4-11.8-3.2-4.25-10.15-3.775-12.6 1.025-3.65 7.15 7.125 13.475 10.8 6.3.075-.175.175-.325.25-.5l-2.25 2.25c-.15.075-.3.15-.425.225h-3.325c.175.05.375.1.55.125-.925-.525-1.85-1.075-2.75-1.6.15.125.275.25.425.4-.525-.925-1.075-1.85-1.6-2.75.025.225.075.475.1.7.2-1.6.425-3.2.625-4.825-.1.225-.2.425-.325.65l2.25-2.25c-.2.15-.4.275-.6.425 1.05-.275 2.1-.575 3.15-.85h-.7c-3.375.025-6.25 2.85-6.25 6.25 0 3.7 2.875 5.85 6.25 6.25-.475-.05-.375-.05-.75-.325.125.1.675.75.35.25.725 1.175.825 1.375 1.2 2.85.5 2.1.25 4.825-.2 7.275-1.35 7.15-4.275 13.625-8.525 19.5 3.8.5 7.625 1 11.425 1.5-.625-3.275-.025-6.375 1.2-9.45-3.05 1.25-6.125 2.5-9.175 3.725 3.025 1.85 4.9 6.3 3.475 9.6 3.8.5 7.625 1 11.425 1.5-2.25-6-2.85-12.15-1.375-18.425h-12.05c1.2 5.075-.075 9.85-3.075 14h10.8c.275.65-.05.025.05-.375.6-2.25-.575 1.075.2-1.15.275-.825.775-1.525 1.45-2.225 1.65-1.625 2.75-1.775 4.575-1.125l-4.375-4.375c1.25 6.775-6.95 13.2-13.125 11.55 1.525 2 3.05 4.025 4.6 6.025-.575-11.8 2.775-23.725 10.125-33.075l-7.575.975c2.75 1.525 3.85 4.6 4.825 7.45 1.325 3.9 2.825 8.025 3.2 12.15.425 4.875-2.275 13.45-8.675 9.675-6.225-3.7-4.85-13.15-3.025-18.875 1.675-5.2 7.425-12.3 13.675-9.15-.95-1.25-1.925-2.5-2.875-3.725 2.675 9.45 4.475 26.725-5.775 32.75-3.05 1.8-7.775 2.2-10.2-.425-3.475-3.75-1.275-10.75-.1-15 1.775-6.425 4.25-13.175 8.05-18.7.275-.4 1.275-.775.525-.65-.85.15.1.3.15.35.55.825 2.475 1.375 3.325 2a23.378 23.378 0 0 1 5.425 5.775c7.55 11.275 6.825 25.375 4.875 38.25-1.3 8.45-2.825 16.875-4.25 25.3-.725 4.325-1.4 8.65-2.2 12.95-.25 1.3-.65 2.5-.975 3.775-.8 3.15-.45-.625-.05.4.025.05 1.9 1.15.275-.1.95 1.25 1.925 2.5 2.875 3.725-.625-1.925-1.225-3.85-1.85-5.775-2.075-6.45-12.625-5.675-12.275 1.65 1.025 21.075.075 42.25-3.1 63.1h12.05c-3.625-10.475-4.875-21.25-3.825-32.3-3.875 1.05-7.775 2.1-11.65 3.15 4 8.05 5.425 16.85 4.675 25.75 3.875-1.05 7.775-2.1 11.65-3.15-6.25-11.1-15.875-28.925-3.225-39.35l-9.825-1.275c5.2 7.25 7.25 16.05 5.125 24.8h12.05c-7.25-18.525-10.125-38.175-8.525-58l-6.25 6.25c1.6-.075.375.075.075-.175.05.05.475.65.675 1.025.625 1.15.95 2.525 1.175 3.85.675 4.15.55 9.35.5 13.8-.15 10.225-1.475 20.3-3.875 30.25 3.8-.5 7.625-1 11.425-1.5-14.55-23.15-19.925-51.525-14.375-78.375h-12.05a308.723 308.723 0 0 1 12.2 74.225c3.875-1.05 7.775-2.1 11.65-3.15-9.125-20.2-12.55-42.55-10.525-64.575-4.1.55-8.175 1.1-12.275 1.65 5.875 22.2 9.575 44.875 10.975 67.8 3.875-1.05 7.775-2.1 11.65-3.15-9.475-21.9-4.775-47.2-.625-69.775h-12.05c2.95 13.35 4.375 26.9 4.375 40.55 0 7.1 10.3 8.425 12.275 1.65 3.925-13.375 7.85-26.725 11.775-40.1h-12.05c1.075 4.575 2.15 9.125 3.225 13.7 1.45 6.2 10.325 5.7 12.05 0 1.95-6.425 2.95-13.1 3.075-19.825h-12.5c1.175 14.1 2.325 28.175 3.5 42.275.25 3.1 2.175 5.75 5.425 6.15 2.75.325 6.425-1.375 6.85-4.475.5-3.55 1-7.1 1.475-10.675-4.1-.55-8.175-1.1-12.275-1.65l-2.325 61.35c-.375 10.125-.775 20.25-1.15 30.375-.325 8.775-2.55 19.325 5.45 25.3 3.95 2.95 9.375-1.075 9.4-5.4.05-4.8.075-9.575.125-14.375h-12.5c.575 4.725 1.15 9.45 1.725 14.15h12.5c-.55-4.35-1.125-8.725-1.675-13.075-.425-3.35-2.575-6.25-6.25-6.25-3.1 0-6.625 2.875-6.25 6.25l.975 9c4.1-.55 8.175-1.1 12.275-1.65-1.3-6.675-2.575-13.35-3.875-20-.65-3.325-4.625-5.2-7.7-4.375-3.525.975-4.925 4.35-4.375 7.7.375 2.2.45 4.65.125 6.875h12.05c-2.425-6.3-3.325-12.625-2.775-19.35-4.1.55-8.175 1.1-12.275 1.65.375 2.125.725 4.275 1.1 6.4.525 3.025 4.05 4.9 6.85 4.475 3.25-.5 5.1-2.95 5.425-6.15l6.975-72.325c.675-6.925-11.275-8.65-12.275-1.65-1.925 13.35-3.875 26.7-5.8 40.025 4.1.55 8.175 1.1 12.275 1.65 1.225-18.45 2.475-36.9 3.7-55.375h-12.5c-.325 21-2.475 41.85-6.55 62.45 4.1.55 8.175 1.1 12.275 1.65 2-16.9 4-33.825 5.975-50.725h-12.5c-1 20.625-4.725 40.925-10.925 60.625 4.025 1.1 8.025 2.225 12.05 3.325 3.25-12.9 5.575-25.95 7.15-39.15.375-3.05-2.65-5.8-5.425-6.15-3.1-.375-5.925 1.425-6.85 4.475-4.825 15.875-7.675 32.3-8.625 48.875-.2 3.375 3 6.25 6.25 6.25 3.6 0 5.975-2.875 6.25-6.25.575-6.95-.25-13.95-2.325-20.6-.925-2.95-3.75-4.95-6.85-4.475-2.75.425-5.8 3.025-5.425 6.15 1.725 14.1 4.2 28.075 7.625 41.875 1.925 7.8 13.975 4.5 12.05-3.325-2.875-11.8-7.75-23.1-14.35-33.3-3.1-4.8-12.2-3.425-11.65 3.15 1.125 13.275 3.55 26.4 7.425 39.175 3.8-1.6 7.625-3.2 11.425-4.825-4.25-9.475-8.5-18.975-12.775-28.45-2.625-5.85-11.7-2.675-11.65 3.15.05 6.075 2.575 11.975 7.325 15.85 2.625 2.125 6.275 2.55 8.85 0 2.275-2.1 2.7-6.6.075-8.75z"/><path fill="#516e8b" d="M363.188 395.492c8.05 0 8.05-12.5 0-12.5s-8.075 12.5 0 12.5z"/><path fill="#516e8b" d="M362.838 396.467c1.75-1.65 3.575-3.2 5.475-4.675l-1.275.975c3.9-3 8.075-5.575 12.5-7.7 1.35-.65 2.5-2.35 2.875-3.725.4-1.5.225-3.5-.625-4.825-.85-1.325-2.15-2.5-3.725-2.875-1.725-.4-3.225-.125-4.825.625-7.05 3.4-13.55 7.975-19.25 13.375-2.375 2.25-2.45 6.6 0 8.85 2.575 2.325 6.3 2.4 8.85-.025z"/><path fill="#516e8b" d="M377.813 382.842c.65.95 1.3 1.875 1.925 2.825.4.725.925 1.325 1.6 1.75.6.55 1.3.925 2.125 1.125.825.25 1.65.3 2.5.1.825-.05 1.6-.275 2.325-.75l1.275-.975a6.25 6.25 0 0 0 1.6-2.75l.225-1.65c0-1.125-.3-2.175-.85-3.15-.65-.95-1.3-1.875-1.925-2.825-.4-.725-.925-1.325-1.6-1.75-.6-.55-1.3-.925-2.125-1.125-.825-.25-1.65-.3-2.5-.1-.825.05-1.6.275-2.325.75l-1.275.975a6.25 6.25 0 0 0-1.6 2.75l-.225 1.65c0 1.1.275 2.175.85 3.15z"/><path fill="#fff" d="M378.863 427.142c-.075-.65-.1-1.35-.3-2-.2-.625-.45-1.225-.75-1.825-.075-.125-.15-.25-.225-.35-.25-.35-.775-1.1-1.225-1.525-.05-.05-.1-.1-.15-.125-.45-.35-.9-.75-1.375-1.05-.325-.2-.725-.35-1.05-.475-.325-.15-.725-.35-1.1-.425-.325-.075-.7-.1-1-.15-.3-.05-.6-.1-.9-.125-.85-.025-1.675.15-2.4.55-.775.25-1.45.675-2 1.3-.025.025-.05.025-.05.05-.05.05-.125.1-.175.175-.1.125-.225.225-.325.35-.5.625-1.075 1.275-1.45 2-.4.725-.725 1.5-.975 2.3-.25.8-.3 1.725-.4 2.525 0 1.125.3 2.175.85 3.15.4.725.925 1.325 1.6 1.75.6.55 1.3.925 2.125 1.125 1.1.3 2.225.3 3.325 0 .725-.175 1.45-.525 2.125-.85.2-.1.375-.225.55-.35.525-.4 1.275-.875 1.75-1.425.475-.55.975-1.15 1.35-1.775 1.275-2.175 1.675-4.9 1-7.325a6.25 6.25 0 0 0-1.6-2.75c-.575-.6-1.225-1.05-2-1.3a4.71 4.71 0 0 0-2.4-.55c-1.125 0-2.175.3-3.15.85-.65.325-1.3.9-1.8 1.325-.175.15-.35.3-.5.5-.425.525-.95 1.125-1.3 1.75-.35.65-.65 1.375-.875 2.075-.075.225-.125.45-.15.675-.1.75-.3 1.525-.25 2.275.05.625.15 1.275.25 1.875.025.1.05.225.075.325.2.7.5 1.4.85 2.05.35.625.8 1.2 1.3 1.7.425.425 1.175.95 1.475 1.175.1.075.2.15.325.2.275.125.6.25.85.35.15.05.575.275.85.35.1.025.2.05.275.075 1.65.3 2.15.3 3.8 0 .675-.125 1.425-.525 1.975-.775.2-.1.4-.2.575-.325.525-.375 1.175-.825 1.65-1.325.475-.525.95-1.1 1.3-1.7l.15-.3c.2-.45.475-1.075.65-1.525a.463.463 0 0 0 .05-.175c.2-.7.3-1.475.3-2.2-.025-.65-.1-1.3-.275-1.925 0-.05-.025-.075-.05-.125-.1-.275-.225-.525-.325-.8s-.225-.525-.325-.8a5.476 5.476 0 0 0-1.375-1.75c-.575-.6-1.225-1.05-2-1.3a4.71 4.71 0 0 0-2.4-.55c-.85-.025-1.675.15-2.4.55-.775.25-1.45.675-2 1.3l-.975 1.275a6.083 6.083 0 0 0-.85 3.15l.225 1.65a6.25 6.25 0 0 0 1.6 2.75c.1.075.175.15.25.25l-.975-1.275c.075.1.125.175.15.275-.2-.5-.425-1-.625-1.5.05.1.075.225.1.35l-.225-1.65v.35l.225-1.65c-.025.175-.075.325-.125.5.2-.5.425-1 .625-1.5-.075.2-.2.375-.325.55l.975-1.275c-.15.2-.325.35-.5.5l1.275-.975c-.2.15-.4.275-.6.35.5-.2 1-.425 1.5-.625-.175.075-.35.125-.525.15l1.65-.225c-.15.025-.3.025-.425 0l1.65.225c-.125-.025-.25-.05-.375-.1.5.2 1 .425 1.5.625a3.764 3.764 0 0 1-.425-.25l1.275.975a3.024 3.024 0 0 1-.4-.4l.975 1.275c-.1-.15-.2-.3-.275-.475.2.5.425 1 .625 1.5-.1-.225-.15-.45-.175-.675l.225 1.65a4.276 4.276 0 0 1 0-.8l-.225 1.65c.05-.325.125-.65.25-.95-.2.5-.425 1-.625 1.5.125-.275.25-.525.45-.75l-.975 1.275c.175-.225.35-.4.575-.575l-1.275.975c.15-.125.325-.225.5-.3-3.05-1.25-6.125-2.5-9.175-3.725.05.15.075.3.1.45l-.225-1.65c.025.275.025.525 0 .775l.225-1.65c-.05.275-.125.55-.225.825.2-.5.425-1 .625-1.5-.125.275-.275.55-.475.8l.975-1.275a3.407 3.407 0 0 1-.6.6l1.275-.975c-.2.15-.425.3-.675.4.5-.2 1-.425 1.5-.625a1.905 1.905 0 0 1-.5.15c2.625 2 5.275 4.025 7.9 6.025v-.075l-.225 1.65c.05-.425.175-.825.325-1.225-.2.5-.425 1-.625 1.5.15-.375.35-.7.6-1.025l-.975 1.275c.175-.225.375-.45.6-.65-1.475.6-2.95 1.225-4.425 1.825h.075l-1.65-.225c.175.025.35.075.525.15-.5-.2-1-.425-1.5-.625.15.075.3.15.425.25l-1.275-.975c.15.125.275.25.4.4l-.975-1.275c.125.15.2.3.275.475-.2-.5-.425-1-.625-1.5.075.15.1.3.125.475l-.225-1.65v.075c-.025.85.15 1.675.55 2.4.25.775.675 1.45 1.3 2 .575.6 1.225 1.05 2 1.3.75.4 1.55.575 2.4.55l1.65-.225a6.25 6.25 0 0 0 2.75-1.6l.975-1.275c.45-.975.75-2.025.75-3.15z"/><path fill="#516e8b" d="M390.163 461.442c-1.85 9.55-1.975 19.075-.525 28.675.375 2.4 3.025 4.175 5.2 4.475 2.375.325 5.05-.775 6.225-2.975 1.575-2.95 1.975-6.025 1.225-9.275-.725-3.2-4.575-5.375-7.7-4.375-3.35 1.075-5.15 4.275-4.375 7.7.15.675.125.55-.025-.425 0 .275 0 .55-.025.85.15-.975.125-1.1-.025-.425.4-.825.425-.95.125-.35 3.8.5 7.625 1 11.425 1.5l-.15-.975c.025.225.05.45.1.7-.1-.55-.15-1.15-.2-1.7-.1-.975-.175-1.95-.25-2.925a71.536 71.536 0 0 1-.125-6.125c.05-1.95.15-3.925.35-5.875.05-.5.1-.975.175-1.45.15-1.475-.175 1.05.05-.275.175-1.125.375-2.25.575-3.375.625-3.2-.9-6.9-4.375-7.7-3.1-.75-7.025.9-7.675 4.325z"/><path fill="#516e8b" d="M390.913 466.942a179.83 179.83 0 0 1-.025 40h12.5c.45-16.475.3-32.975-.4-49.45-.35-8-12.45-8.1-12.5 0-.1 14.4.95 28.725 2.95 42.975.975 6.9 13.1 5.35 12.275-1.65a282.918 282.918 0 0 1-1.5-49.55c-4.1.55-8.175 1.1-12.275 1.65 2.05 11.175 2.65 22.5 2.05 33.825-.375 6.925 11.075 8.675 12.275 1.65 1.725-10.15 2.45-20.35 1.975-30.65-.375-8-12.475-8.1-12.5 0-.025 9.95.45 19.9 1.375 29.8.3 3.1 2.15 5.75 5.425 6.15 2.8.325 6.35-1.375 6.85-4.475 1.725-10.625.35-20.8-4.15-30.575-2.775-6-11.4-2.525-11.65 3.15-.625 13.65-3.775 27.175-9.425 39.625 3.875 1.05 7.775 2.1 11.65 3.15-1.5-13.575-3.025-27.15-4.525-40.725-.8-7.15-9.575-8.325-12.275-1.65-3.875 9.6-5.8 19.875-5.85 30.25h12.5l-.3-30c-.05-4.95-7.125-8.85-10.675-4.425-3.375 4.225-5.25 8.725-5.425 14.2h12.5c-.175-5.05-.35-10.125-.55-15.175-.275-8.025-12.5-8.075-12.5 0-.025 17.825 1.675 35.6 4.925 53.125 1.275 6.9 12.7 5.35 12.275-1.65-.225-3.55-.425-7.125-.65-10.675h-12.5c1.525 13 3.025 25.975 4.55 38.975 4.1-.55 8.175-1.1 12.275-1.65-.475-2.025-.225-3.625.475-5.575-4.1-.55-8.175-1.1-12.275-1.65.525 6.375.9 12.775 1.05 19.175.05 1.975.625 5-.5 6.75-1.025 1.625-3.525 2.55-5.1 3.5-9.3 5.55-15.3 16.025-13.875 27 4.1-.55 8.175-1.1 12.275-1.65l-3.9-9.6c-1.05-2.6-3.05-4.6-6.025-4.6-2.55 0-5.575 1.925-6.025 4.6-.7 4.125-2 7.8-3.75 11.575-2.1 4.5.325 9.525 4.3 12.075 7.975 5.125 16.075-.2 21.175-6.55-3.55-1.475-7.125-2.95-10.675-4.425-.35 7.225 4.6 13.65 11.475 15.575 3.475.975 6.5-1.225 7.7-4.375 2.725-7.3 2-14.875-1-21.925-2.75-6.475-13.7-1.85-11.425 4.825 2.45 7.2 5.475 14.2 9.025 20.925 1.45 2.725 5.075 3.75 7.8 2.55 3.05-1.35 4.125-4.2 3.625-7.375-.9-5.65-2.675-10.9-5.075-16.075-1.3-2.775-5.2-3.7-7.8-2.55-2.975 1.3-4.225 4.225-3.625 7.375 1.375 7.275 4.8 13.75 9.625 19.325 3.475 4.025 11.025.875 10.675-4.425-.4-5.95-.8-11.9-1.175-17.85-4.1.55-8.175 1.1-12.275 1.65 2.125 6.225 4.275 12.45 6.4 18.675 1.875 5.5 10.575 6.375 12.05 0 1.625-7 .6-14.25-3.325-20.325-3.85-5.95-13.05-2.175-11.425 4.825 1.275 5.425 3.3 10.625 5.975 15.525 2.8 5.15 12.375 3.15 11.65-3.15-.775-6.725-2-13.35-3.9-19.85-4.025 1.1-8.025 2.225-12.05 3.325 2.075 6.725 4.175 13.45 6.25 20.175 2.125 6.85 11.85 5.35 12.275-1.65.45-7.1-1.175-13.925-4.375-20.25-3.175-6.275-13.7-1.925-11.425 4.825 1.525 4.55 3.075 9.1 4.6 13.625 3.8-1.6 7.625-3.2 11.425-4.825-1.475-2.8-2.975-5.6-4.45-8.425-3.775-7.1-14.55-.8-10.8 6.3 1.475 2.8 2.975 5.6 4.45 8.425 3.275 6.175 13.7 1.95 11.425-4.825-1.525-4.55-3.075-9.1-4.6-13.625-3.8 1.6-7.625 3.2-11.425 4.825 2.225 4.4 2.975 9.05 2.675 13.95 4.1-.55 8.175-1.1 12.275-1.65-2.075-6.725-4.175-13.45-6.25-20.175-2.375-7.65-14.325-4.425-12.05 3.325 1.6 5.4 2.825 10.925 3.45 16.525 3.875-1.05 7.775-2.1 11.65-3.15-2.175-4-3.675-8.125-4.725-12.55-3.8 1.6-7.625 3.2-11.425 4.825 2.125 3.275 2.95 6.85 2.075 10.7h12.05c-2.125-6.225-4.275-12.45-6.4-18.675-2.15-6.3-12.775-5.775-12.275 1.65.4 5.95.8 11.9 1.175 17.85 3.55-1.475 7.125-2.95 10.675-4.425-3.425-3.975-5.425-8.675-6.4-13.8-3.8 1.6-7.625 3.2-11.425 4.825 1.925 4.15 3.1 8.575 3.8 13.1 3.8-1.6 7.625-3.2 11.425-4.825a122.475 122.475 0 0 1-7.775-17.925c-3.8 1.6-7.625 3.2-11.425 4.825 1.7 4 1.225 8.35-.25 12.3 2.575-1.45 5.125-2.9 7.7-4.375-1.725-.475-2.375-1.8-2.3-3.525.25-5.1-7.25-8.675-10.675-4.425-1.325 1.65-2.85 4-4.875 4.85-.075.025-.7.325-.625.05.075-.275.675 2.9.525 1.55-.275 1.05-.575 2.1-.85 3.15 2.4-4.6 4.15-9.425 5.025-14.55h-12.05l3.9 9.6c1.175 2.875 3.55 4.975 6.85 4.475 2.75-.425 5.825-3.025 5.425-6.15-.575-4.35.2-8.625 2.9-12.2 2.925-3.825 7.8-5.3 11.35-8.425 4.775-4.225 5.325-10.025 5.2-16-.15-6.6-.5-13.2-1.05-19.775-.6-7.05-9.875-8.475-12.275-1.65-1.4 3.975-1.45 8.125-.475 12.225 1.6 6.7 13.1 5.45 12.275-1.65-1.525-13-3.025-25.975-4.55-38.975-.4-3.35-2.6-6.25-6.25-6.25-3.225 0-6.45 2.875-6.25 6.25.225 3.55.425 7.125.65 10.675 4.1-.55 8.175-1.1 12.275-1.65-3.05-16.45-4.5-33.1-4.475-49.8h-12.5c.175 5.05.35 10.125.55 15.175.275 8.025 12.25 8.05 12.5 0 .05-1.9.55-3.85 1.75-5.35-3.55-1.475-7.125-2.95-10.675-4.425l.3 30c.075 8.05 12.45 8.05 12.5 0 .05-9.325 1.925-18.275 5.4-26.925-4.1-.55-8.175-1.1-12.275-1.65 1.5 13.575 3.025 27.15 4.525 40.725.3 2.775 1.725 5.25 4.6 6.025 2.475.675 5.925-.4 7.05-2.875 6.6-14.55 10.4-29.95 11.15-45.95-3.875 1.05-7.775 2.1-11.65 3.15 2.975 6.45 4.025 13.925 2.875 20.95 4.1.55 8.175 1.1 12.275 1.65-.95-9.9-1.4-19.85-1.375-29.8h-12.5c.45 9.15.025 18.3-1.525 27.325 4.1.55 8.175 1.1 12.275 1.65.65-12.475-.25-24.875-2.5-37.15-.55-3.025-4.025-4.9-6.85-4.475-3.175.475-5.225 2.95-5.425 6.15-.95 16.55-.45 33.1 1.5 49.55 4.1-.55 8.175-1.1 12.275-1.65-1.85-13.125-2.6-26.4-2.5-39.65h-12.5c.7 16.475.85 32.95.4 49.45-.1 3.375 2.925 6.25 6.25 6.25 3.7 0 5.875-2.875 6.25-6.25 1.5-13.3 1.5-26.7.025-40-.375-3.35-2.6-6.25-6.25-6.25-3.1-.125-6.625 2.75-6.25 6.125z"/><path fill="#516e8b" d="M393.038 399.417c-1.125-2.4-2.25-4.8-3.4-7.225l-10.8 6.3c3.15 6.2 5.275 13 6.075 19.95 3.875-1.05 7.775-2.1 11.65-3.15-1.95-4.35-3.65-8.8-5.2-13.3-3.8 1.6-7.625 3.2-11.425 4.825 6.725 14.925 10.475 31.175 11.125 47.525.325 8 12.6 8.075 12.5 0-.075-7.825-.175-15.65-.25-23.5-4.1.55-8.175 1.1-12.275 1.65 3.75 21.6 4.625 43.625 2.925 65.475h12.5a303.758 303.758 0 0 1-1.2-36.325h-12.5c.525 19.85.125 39.725-1.15 59.55-.45 6.95 11 8.625 12.275 1.65 3.4-18.6 3.8-37.45 2.875-56.3-.45-9.25-1.175-18.5-1.925-27.75-.7-8.775-1.575-17.5-5.9-25.325-3.9-7.05-14.7-.75-10.8 6.3 3.7 6.675 3.85 14.6 4.45 22.025.675 8.65 1.35 17.3 1.75 25.95.8 17.275.625 34.7-2.5 51.775 4.1.55 8.175 1.1 12.275 1.65a657.057 657.057 0 0 0 1.15-59.55c-.2-8.05-12.275-8.05-12.5 0a303.758 303.758 0 0 0 1.2 36.325c.75 7.975 11.875 8.1 12.5 0 1.8-23 .55-46.075-3.375-68.8-1.225-7.025-12.35-5.25-12.275 1.65.075 7.825.175 15.65.25 23.5h12.5c-.775-18.7-5.15-36.8-12.85-53.825-2.9-6.425-13.7-1.875-11.425 4.825 1.875 5.525 4.05 10.95 6.45 16.275 2.475 5.525 12.325 2.9 11.65-3.15-1.05-9.25-3.55-17.925-7.775-26.25-1.525-3-5.75-3.875-8.55-2.25-3.125 1.825-3.675 5.475-2.25 8.55 1.125 2.4 2.25 4.8 3.4 7.225 1.425 3.05 5.825 3.825 8.55 2.25 3.175-1.8 3.725-5.45 2.275-8.525z"/></svg>